<svg width="29" height="26" viewBox="0 0 29 26" fill="none" xmlns="http://www.w3.org/2000/svg">
<path d="M26.2217 2.6491C25.5407 1.96777 24.7321 1.4273 23.8422 1.05855C22.9522 0.689796 21.9984 0.5 21.0351 0.5C20.0717 0.5 19.1179 0.689796 18.2279 1.05855C17.338 1.4273 16.5294 1.96777 15.8484 2.6491L14.4351 4.06243L13.0217 2.6491C11.6461 1.27351 9.78043 0.500713 7.83505 0.500713C5.88968 0.500713 4.02398 1.27351 2.64839 2.6491C1.2728 4.02469 0.5 5.89039 0.5 7.83577C0.5 9.78114 1.2728 11.6468 2.64839 13.0224L14.4351 24.8091L26.2217 13.0224C26.903 12.3414 27.4435 11.5329 27.8123 10.6429C28.181 9.75296 28.3708 8.79908 28.3708 7.83577C28.3708 6.87245 28.181 5.91857 27.8123 5.02863C27.4435 4.13868 26.903 3.33011 26.2217 2.6491Z" fill="url(#paint0_linear_273_11)" stroke="url(#paint1_linear_273_11)" stroke-linecap="round" stroke-linejoin="round"/>
<defs>
<linearGradient id="paint0_linear_273_11" x1="3.43506" y1="4.00244" x2="24.4351" y2="21.0024" gradientUnits="userSpaceOnUse">
<stop stop-color="#26CEE6"/>
<stop offset="1" stop-color="#DA27F5"/>
</linearGradient>
<linearGradient id="paint1_linear_273_11" x1="0.435059" y1="0.502441" x2="28.4351" y2="24.5024" gradientUnits="userSpaceOnUse">
<stop stop-color="#26CEE6"/>
<stop offset="1" stop-color="#B747F2"/>
</linearGradient>
</defs>
</svg>
