<svg width="30" height="27" viewBox="0 0 30 27" fill="none" xmlns="http://www.w3.org/2000/svg">
<path d="M26.7217 3.1491C26.0407 2.46777 25.2321 1.9273 24.3422 1.55855C23.4522 1.1898 22.4984 1 21.5351 1C20.5717 1 19.6179 1.1898 18.7279 1.55855C17.838 1.9273 17.0294 2.46777 16.3484 3.1491L14.9351 4.56243L13.5217 3.1491C12.1461 1.77351 10.2804 1.00071 8.33505 1.00071C6.38968 1.00071 4.52398 1.77351 3.14839 3.1491C1.7728 4.52469 1 6.39039 1 8.33577C1 10.2811 1.7728 12.1468 3.14839 13.5224L14.9351 25.3091L26.7217 13.5224C27.403 12.8414 27.9435 12.0329 28.3123 11.1429C28.681 10.253 28.8708 9.29908 28.8708 8.33577C28.8708 7.37245 28.681 6.41857 28.3123 5.52863C27.9435 4.63868 27.403 3.83011 26.7217 3.1491Z" stroke="#F3F3F3" stroke-width="2" stroke-linecap="round" stroke-linejoin="round"/>
</svg>
