<svg width="15" height="14" viewBox="0 0 15 14" fill="none" xmlns="http://www.w3.org/2000/svg">
<path d="M13.3609 1.57455C13.0204 1.23389 12.6161 0.963648 12.1711 0.779273C11.7261 0.594898 11.2492 0.5 10.7675 0.5C10.2859 0.5 9.80893 0.594898 9.36396 0.779273C8.91898 0.963648 8.5147 1.23389 8.17419 1.57455L7.46753 2.28122L6.76086 1.57455C6.07307 0.886756 5.14022 0.500357 4.16753 0.500357C3.19484 0.500357 2.26199 0.886756 1.57419 1.57455C0.886399 2.26235 0.5 3.19519 0.5 4.16788C0.5 5.14057 0.886399 6.07342 1.57419 6.76122L7.46753 12.6545L13.3609 6.76122C13.7015 6.42071 13.9718 6.01643 14.1561 5.57145C14.3405 5.12648 14.4354 4.64954 14.4354 4.16788C14.4354 3.68623 14.3405 3.20929 14.1561 2.76431C13.9718 2.31934 13.7015 1.91505 13.3609 1.57455Z" stroke="#5A5A5A" stroke-linecap="round" stroke-linejoin="round"/>
</svg>
