<svg width="63" height="21" viewBox="0 0 63 21" fill="none" xmlns="http://www.w3.org/2000/svg">
<path d="M0.671995 20.256C0.223995 20.256 -4.76837e-06 20.032 -4.76837e-06 19.584V0.67198C-4.76837e-06 0.223981 0.223995 -1.90735e-05 0.671995 -1.90735e-05C1.024 -1.90735e-05 1.29066 0.149314 1.472 0.447981L9.568 12.896L9.248 12.928L17.344 0.447981C17.5253 0.149314 17.792 -1.90735e-05 18.144 -1.90735e-05C18.5707 -1.90735e-05 18.784 0.223981 18.784 0.67198V19.584C18.784 20.032 18.56 20.256 18.112 20.256C17.664 20.256 17.44 20.032 17.44 19.584V2.01598L17.824 2.14398L10.208 13.856C10.0267 14.1546 9.76 14.304 9.408 14.304C9.056 14.304 8.78933 14.1546 8.608 13.856L0.991995 2.14398L1.344 2.30398V19.584C1.344 20.032 1.12 20.256 0.671995 20.256ZM25.9392 20.224C24.0086 20.224 22.5952 19.7813 21.6992 18.896C20.8139 18.0106 20.3712 16.608 20.3712 14.688C20.3712 14.496 20.4352 14.336 20.5632 14.208C20.6912 14.08 20.8512 14.016 21.0432 14.016C21.2352 14.016 21.3952 14.08 21.5232 14.208C21.6512 14.336 21.7152 14.496 21.7152 14.688C21.7152 16.2346 22.0246 17.3226 22.6432 17.952C23.2726 18.5706 24.3712 18.88 25.9392 18.88H30.5472C32.1152 18.88 33.2086 18.5706 33.8272 17.952C34.4566 17.3226 34.7712 16.2346 34.7712 14.688C34.7712 13.1306 34.4566 12.0426 33.8272 11.424C33.2086 10.8053 32.1152 10.496 30.5472 10.496H26.0352C24.2006 10.496 22.8619 10.08 22.0192 9.24798C21.1766 8.40531 20.7552 7.07198 20.7552 5.24798C20.7552 3.42398 21.1712 2.09598 22.0032 1.26398C22.8459 0.421314 24.1792 -1.90735e-05 26.0032 -1.90735e-05H30.7072C32.5312 -1.90735e-05 33.8592 0.415981 34.6912 1.24798C35.5339 2.07998 35.9552 3.40265 35.9552 5.21598C35.9552 5.40798 35.8912 5.56798 35.7632 5.69598C35.6352 5.82398 35.4752 5.88798 35.2832 5.88798C35.0912 5.88798 34.9312 5.82398 34.8032 5.69598C34.6752 5.56798 34.6112 5.40798 34.6112 5.21598C34.6112 3.78665 34.3179 2.78398 33.7312 2.20798C33.1552 1.63198 32.1472 1.34398 30.7072 1.34398H26.0032C24.5632 1.34398 23.5499 1.63731 22.9632 2.22398C22.3872 2.79998 22.0992 3.80798 22.0992 5.24798C22.0992 6.68798 22.3926 7.70131 22.9792 8.28798C23.5659 8.86398 24.5846 9.15198 26.0352 9.15198H30.5472C32.4886 9.15198 33.9019 9.59465 34.7872 10.48C35.6726 11.3653 36.1152 12.768 36.1152 14.688C36.1152 16.608 35.6726 18.0106 34.7872 18.896C33.9019 19.7813 32.4886 20.224 30.5472 20.224H25.9392ZM38.3982 20.256C37.9502 20.256 37.7262 20.032 37.7262 19.584V0.67198C37.7262 0.223981 37.9502 -1.90735e-05 38.3982 -1.90735e-05H49.8542C50.0782 -1.90735e-05 50.2436 0.0586472 50.3502 0.17598C50.4676 0.282647 50.5262 0.447981 50.5262 0.67198C50.5262 1.11998 50.3022 1.34398 49.8542 1.34398H39.0702V9.31198H46.6542C47.1022 9.31198 47.3262 9.53598 47.3262 9.98398C47.3262 10.432 47.1022 10.656 46.6542 10.656H39.0702V19.584C39.0702 20.032 38.8462 20.256 38.3982 20.256ZM50.2457 20.256C49.7977 20.256 49.5737 20.032 49.5737 19.584V0.67198C49.5737 0.223981 49.7977 -1.90735e-05 50.2457 -1.90735e-05H61.7017C61.9257 -1.90735e-05 62.0911 0.0586472 62.1977 0.17598C62.3151 0.282647 62.3737 0.447981 62.3737 0.67198C62.3737 1.11998 62.1497 1.34398 61.7017 1.34398H50.9177V9.31198H58.5017C58.9497 9.31198 59.1737 9.53598 59.1737 9.98398C59.1737 10.432 58.9497 10.656 58.5017 10.656H50.9177V19.584C50.9177 20.032 50.6937 20.256 50.2457 20.256Z" fill="white"/>
</svg>
