<svg width="21" height="16" viewBox="0 0 21 16" fill="none" xmlns="http://www.w3.org/2000/svg">
<path d="M14 8C14 9.6569 12.6569 11 11 11C9.3431 11 8 9.6569 8 8C8 6.3431 9.3431 5 11 5C12.6569 5 14 6.3431 14 8Z" stroke="#C4C4C4" stroke-width="1.7"/>
<path d="M5.94969 3.05025C8.68336 0.316582 13.1155 0.316582 15.8491 3.05025L17.9705 5.17157C19.3038 6.5049 19.9705 7.1716 19.9705 8C19.9705 8.8284 19.3038 9.4951 17.9705 10.8284L15.8491 12.9497C13.1155 15.6834 8.68336 15.6834 5.94969 12.9497L3.82837 10.8284C2.49503 9.4951 1.82837 8.8284 1.82837 8C1.82837 7.1716 2.49503 6.5049 3.82837 5.17157L5.94969 3.05025Z" stroke="#C4C4C4" stroke-width="1.7" stroke-linejoin="round"/>
</svg>
